<?xml version="1.0" standalone="no"?>
<!DOCTYPE svg PUBLIC "-//W3C//DTD SVG 20010904//EN"
 "http://www.w3.org/TR/2001/REC-SVG-20010904/DTD/svg10.dtd">
<svg version="1.0" xmlns="http://www.w3.org/2000/svg"
 width="124.000000pt" height="124.000000pt" viewBox="0 0 124.000000 124.000000"
 preserveAspectRatio="xMidYMid meet">

<g transform="translate(0.000000,124.000000) scale(0.100000,-0.100000)"
fill="#000000" stroke="none">
<path d="M361 1221 c-29 -29 -31 -149 -3 -174 26 -24 68 -21 86 5 19 27 22
137 4 161 -22 28 -63 32 -87 8z"/>
<path d="M810 1220 c-16 -16 -20 -33 -20 -86 0 -84 11 -104 55 -104 47 0 65
29 65 103 0 48 -4 62 -25 82 -29 30 -49 31 -75 5z"/>
<path d="M105 1130 c-22 -11 -51 -36 -65 -57 l-25 -37 -3 -440 c-2 -386 -1
-446 13 -483 19 -50 61 -88 113 -103 60 -16 927 -13 975 4 50 18 76 42 98 91
17 37 19 74 19 465 0 249 -4 440 -10 460 -11 41 -61 94 -103 109 -16 6 -57 11
-91 11 -61 0 -63 -1 -59 -23 15 -75 -47 -157 -118 -157 -73 0 -119 53 -119
140 l0 40 -104 0 -103 0 -6 -55 c-8 -82 -49 -125 -118 -125 -70 0 -119 57
-119 139 l0 41 -67 0 c-48 0 -80 -6 -108 -20z m1043 -625 l-3 -374 -23 -23
-23 -23 -479 0 -479 0 -23 23 -23 23 -3 374 -3 375 531 0 531 0 -3 -375z"/>
<path d="M430 715 l0 -75 75 0 75 0 0 75 0 75 -75 0 -75 0 0 -75z"/>
<path d="M660 715 l0 -75 75 0 75 0 0 75 0 75 -75 0 -75 0 0 -75z"/>
<path d="M900 715 l0 -75 75 0 75 0 0 75 0 75 -75 0 -75 0 0 -75z"/>
<path d="M764 512 c-21 -26 -39 -49 -41 -51 -1 -2 -15 4 -29 14 -26 17 -28 17
-40 0 -16 -22 -14 -25 35 -64 l39 -31 56 72 c31 39 56 74 56 77 0 4 -9 12 -19
18 -17 11 -24 6 -57 -35z"/>
<path d="M190 475 l0 -75 75 0 75 0 0 75 0 75 -75 0 -75 0 0 -75z"/>
<path d="M430 475 l0 -75 75 0 75 0 0 75 0 75 -75 0 -75 0 0 -75z"/>
<path d="M900 475 l0 -75 75 0 75 0 0 75 0 75 -75 0 -75 0 0 -75z"/>
<path d="M190 235 l0 -75 75 0 75 0 0 75 0 75 -75 0 -75 0 0 -75z"/>
<path d="M430 235 l0 -75 75 0 75 0 0 75 0 75 -75 0 -75 0 0 -75z"/>
<path d="M660 235 l0 -75 75 0 75 0 0 75 0 75 -75 0 -75 0 0 -75z"/>
</g>
</svg>
